<?xml version="1.0" encoding="utf-8"?>
<!-- Generator: Adobe Illustrator 27.5.0, SVG Export Plug-In . SVG Version: 6.00 Build 0)  -->
<svg version="1.1" xmlns="http://www.w3.org/2000/svg" xmlns:xlink="http://www.w3.org/1999/xlink" x="0px" y="0px"
	 viewBox="0 0 500 500" style="enable-background:new 0 0 500 500;" xml:space="preserve">
<g id="BACKGROUND">
	<rect style="fill:#FFFFFF;" width="500" height="500"/>
</g>
<g id="OBJECT">
	<g>
		<g>
			<circle style="fill:#CFF9F1;" cx="253.328" cy="270.351" r="186.649"/>
		</g>
		<g>
			<g>
				<g>
					<g>
						<rect x="334.142" y="301.491" style="fill:#EE4B4C;" width="39.487" height="28.087"/>
					</g>
				</g>
				<g>
					<g>
						<g>
							<path style="fill:#161415;" d="M342.723,299.506v-5.771c0-3.852,3.134-6.986,6.986-6.986h8.353
								c3.852,0,6.986,3.134,6.986,6.986v5.771h6.075v-5.771c0-7.202-5.859-13.061-13.061-13.061h-8.353
								c-7.202,0-13.061,5.859-13.061,13.061v5.771H342.723z"/>
						</g>
					</g>
				</g>
				<g>
					<g>
						<path style="fill:#FFFFFF;" d="M357.088,293.431c0.015-0.045,0.146-0.251,0.358-0.57c1.232-1.856,5.211-7.53,5.211-7.53
							l2.734,1.519l5.265-6.176l3.442,2.632l-7.087,7.796l-1.822-1.477l-5.164,6.743"/>
					</g>
				</g>
			</g>
			<g>
				<g>
					<g>
						<circle style="fill:#FFFFFF;" cx="354.12" cy="311.58" r="4.785"/>
					</g>
				</g>
				<g>
					<g>
						<polygon style="fill:#FFFFFF;" points="357.887,324.273 350.354,324.273 352.162,315.082 356.079,315.082 						"/>
					</g>
				</g>
			</g>
		</g>
		<g>
			<g>
				<g>
					<g>
						<rect x="332.558" y="336.476" style="fill:#EE4B4C;" width="53.164" height="37.953"/>
					</g>
				</g>
				<g>
					<g>
						<g>
							<polygon style="fill:#EE4B4C;" points="359.139,347.319 385.721,374.428 332.558,374.428 							"/>
						</g>
					</g>
					<g>
						<g>
							<path style="fill:#FFFFFF;" d="M388.731,375.692h-59.184l29.592-30.179L388.731,375.692z M335.566,373.164h47.146
								l-23.572-24.039L335.566,373.164z"/>
						</g>
					</g>
				</g>
				<g>
					<g>
						<g>
							<polygon style="fill:#EE4B4C;" points="359.139,363.585 332.558,336.476 385.721,336.476 							"/>
						</g>
					</g>
					<g>
						<g>
							<path style="fill:#FFFFFF;" d="M359.14,365.391l-29.592-30.179h59.184L359.14,365.391z M335.566,337.74l23.574,24.039
								l23.572-24.039H335.566z"/>
						</g>
					</g>
				</g>
			</g>
		</g>
		<g>
			<g>
				<g>
					<path style="fill:#EE4B4C;" d="M113.354,316.865H55.06c-1.904,0-3.447-1.543-3.447-3.447v-32.594
						c0-1.904,1.543-3.448,3.447-3.448h58.293c1.904,0,3.447,1.544,3.447,3.448v32.594
						C116.801,315.322,115.258,316.865,113.354,316.865z"/>
				</g>
			</g>
			<g>
				<g>
					<rect x="51.613" y="281.607" style="fill:#161415;" width="65.188" height="8.932"/>
				</g>
			</g>
			<g>
				<g>
					<rect x="55.53" y="294.613" style="fill:#FFFFFF;" width="15.357" height="13.79"/>
				</g>
			</g>
			<g>
				<g>
					<path style="fill:#FFBAC8;" d="M109.143,302.488h-3.861c-1.355,0-2.454-1.099-2.454-2.454v-2.966
						c0-1.355,1.099-2.454,2.454-2.454h3.861c1.355,0,2.454,1.099,2.454,2.454v2.966
						C111.597,301.389,110.498,302.488,109.143,302.488z"/>
				</g>
			</g>
			<g>
				<g>
					<path style="fill:#FFBAC8;" d="M109.143,311.655h-3.861c-1.355,0-2.454-1.099-2.454-2.454v-2.966
						c0-1.355,1.099-2.454,2.454-2.454h3.861c1.355,0,2.454,1.099,2.454,2.454v2.966
						C111.597,310.556,110.498,311.655,109.143,311.655z"/>
				</g>
			</g>
		</g>
		<g>
			<g>
				<g>
					<g>
						<path style="fill:#90E0D3;" d="M442.196,360.762h-46.317c-1.845,0-3.34-1.495-3.34-3.34v-3.783c0-1.845,1.495-3.34,3.34-3.34
							h46.317c1.845,0,3.34,1.495,3.34,3.34v3.783C445.536,359.267,444.04,360.762,442.196,360.762z"/>
					</g>
				</g>
				<g>
					<g>
						<path style="fill:#EE4B4C;" d="M442.196,347.797h-46.317c-1.845,0-3.34-1.495-3.34-3.34v-3.783c0-1.845,1.495-3.34,3.34-3.34
							h46.317c1.845,0,3.34,1.495,3.34,3.34v3.783C445.536,346.302,444.04,347.797,442.196,347.797z"/>
					</g>
				</g>
				<g>
					<g>
						<g>
							<path style="fill:#EE4B4C;" d="M405.236,355.758c0,1.308-1.06,2.368-2.368,2.368c-1.308,0-2.368-1.06-2.368-2.368
								c0-1.308,1.06-2.368,2.368-2.368C404.175,353.39,405.236,354.45,405.236,355.758z"/>
						</g>
					</g>
					<g>
						<g>
							<path style="fill:#EE4B4C;" d="M413.32,355.758c0,1.308-1.06,2.368-2.368,2.368c-1.308,0-2.368-1.06-2.368-2.368
								c0-1.308,1.06-2.368,2.368-2.368C412.26,353.39,413.32,354.45,413.32,355.758z"/>
						</g>
					</g>
					<g>
						<g>
							<path style="fill:#EE4B4C;" d="M421.405,355.758c0,1.308-1.06,2.368-2.368,2.368c-1.308,0-2.368-1.06-2.368-2.368
								c0-1.308,1.06-2.368,2.368-2.368C420.345,353.39,421.405,354.45,421.405,355.758z"/>
						</g>
					</g>
					<g>
						<g>
							<path style="fill:#EE4B4C;" d="M429.49,355.758c0,1.308-1.06,2.368-2.368,2.368c-1.308,0-2.368-1.06-2.368-2.368
								c0-1.308,1.06-2.368,2.368-2.368C428.43,353.39,429.49,354.45,429.49,355.758z"/>
						</g>
					</g>
					<g>
						<g>
							<path style="fill:#EE4B4C;" d="M437.575,355.758c0,1.308-1.06,2.368-2.368,2.368c-1.308,0-2.368-1.06-2.368-2.368
								c0-1.308,1.06-2.368,2.368-2.368C436.514,353.39,437.575,354.45,437.575,355.758z"/>
						</g>
					</g>
				</g>
				<g>
					<g>
						<g>
							<path style="fill:#161415;" d="M424.086,320.093c0,2.789-2.261,6.88-5.049,6.88c-2.789,0-5.049-4.092-5.049-6.88
								c0-2.789,2.261-5.049,5.049-5.049C421.826,315.043,424.086,317.304,424.086,320.093z"/>
						</g>
					</g>
					<g>
						<g>
							<path style="fill:#161415;" d="M427.72,330.768c-0.715-0.705-1.633-1.161-2.528-1.616c-0.895-0.455-1.804-0.936-2.483-1.677
								c-0.108-0.118-0.206-0.246-0.299-0.378c-0.968,1.019-2.126,1.694-3.373,1.694c-1.246,0-2.404-0.676-3.373-1.694
								c-0.093,0.132-0.191,0.26-0.299,0.378c-0.679,0.74-1.588,1.221-2.483,1.677c-0.895,0.455-1.813,0.911-2.528,1.616
								c-1.202,1.186-1.685,3.05-1.209,4.67l9.892-0.002l9.892,0.002C429.405,333.818,428.922,331.953,427.72,330.768z"/>
						</g>
					</g>
				</g>
			</g>
		</g>
		<g>
			<g>
				<g>
					<g>
						<g>
							<path style="fill:#EE4B4C;" d="M111.24,207.546c0-1.513-4.693-2.739-10.482-2.739c-5.789,0-10.482,1.226-10.482,2.739
								c0,0.674,0,2.86,0,3.533c0,1.513,4.693,2.739,10.482,2.739c5.789,0,10.482-1.226,10.482-2.739
								C111.24,210.406,111.24,208.22,111.24,207.546z"/>
						</g>
					</g>
					<g>
						<g>
							<ellipse style="fill:#FFBAC8;" cx="100.757" cy="207.546" rx="10.482" ry="2.739"/>
						</g>
					</g>
				</g>
				<g>
					<g>
						<g>
							<path style="fill:#EE4B4C;" d="M111.24,201.732c0-1.513-4.693-2.739-10.482-2.739c-5.789,0-10.482,1.226-10.482,2.739
								c0,0.674,0,2.859,0,3.533c0,1.513,4.693,2.739,10.482,2.739c5.789,0,10.482-1.226,10.482-2.739
								C111.24,204.591,111.24,202.406,111.24,201.732z"/>
						</g>
					</g>
					<g>
						<g>
							<path style="fill:#FFBAC8;" d="M111.24,201.732c0,1.513-4.693,2.739-10.482,2.739c-5.789,0-10.482-1.226-10.482-2.739
								c0-1.513,4.693-2.739,10.482-2.739C106.547,198.993,111.24,200.219,111.24,201.732z"/>
						</g>
					</g>
				</g>
				<g>
					<g>
						<g>
							<path style="fill:#EE4B4C;" d="M111.24,195.917c0-1.513-4.693-2.739-10.482-2.739c-5.789,0-10.482,1.226-10.482,2.739
								c0,0.674,0,2.859,0,3.533c0,1.513,4.693,2.739,10.482,2.739c5.789,0,10.482-1.226,10.482-2.739
								C111.24,198.777,111.24,196.591,111.24,195.917z"/>
						</g>
					</g>
					<g>
						<g>
							<ellipse style="fill:#FFBAC8;" cx="100.757" cy="195.917" rx="10.482" ry="2.739"/>
						</g>
					</g>
				</g>
				<g>
					<g>
						<g>
							<path style="fill:#EE4B4C;" d="M111.24,190.103c0-1.513-4.693-2.739-10.482-2.739c-5.789,0-10.482,1.226-10.482,2.739
								c0,0.674,0,2.859,0,3.533c0,1.513,4.693,2.739,10.482,2.739c5.789,0,10.482-1.226,10.482-2.739
								C111.24,192.963,111.24,190.777,111.24,190.103z"/>
						</g>
					</g>
					<g>
						<g>
							<ellipse style="fill:#FFBAC8;" cx="100.757" cy="190.103" rx="10.482" ry="2.739"/>
						</g>
					</g>
				</g>
				<g>
					<g>
						<g>
							<path style="fill:#EE4B4C;" d="M111.24,184.289c0-1.513-4.693-2.739-10.482-2.739c-5.789,0-10.482,1.226-10.482,2.739
								c0,0.674,0,2.859,0,3.533c0,1.513,4.693,2.739,10.482,2.739c5.789,0,10.482-1.226,10.482-2.739
								C111.24,187.148,111.24,184.962,111.24,184.289z"/>
						</g>
					</g>
					<g>
						<g>
							<ellipse style="fill:#FFBAC8;" cx="100.757" cy="184.289" rx="10.482" ry="2.739"/>
						</g>
					</g>
				</g>
				<g>
					<g>
						<g>
							<path style="fill:#EE4B4C;" d="M111.24,178.474c0-1.513-4.693-2.739-10.482-2.739c-5.789,0-10.482,1.226-10.482,2.739
								c0,0.674,0,2.859,0,3.533c0,1.513,4.693,2.739,10.482,2.739c5.789,0,10.482-1.226,10.482-2.739
								C111.24,181.334,111.24,179.148,111.24,178.474z"/>
						</g>
					</g>
					<g>
						<g>
							<ellipse style="fill:#FFBAC8;" cx="100.757" cy="178.474" rx="10.482" ry="2.739"/>
						</g>
					</g>
				</g>
			</g>
			<g>
				<g>
					<g>
						<g>
							<path style="fill:#EE4B4C;" d="M85.88,207.546c0-1.513-4.693-2.739-10.482-2.739c-5.789,0-10.482,1.226-10.482,2.739
								c0,0.674,0,2.86,0,3.533c0,1.513,4.693,2.739,10.482,2.739c5.789,0,10.482-1.226,10.482-2.739
								C85.88,210.406,85.88,208.22,85.88,207.546z"/>
						</g>
					</g>
					<g>
						<g>
							<ellipse style="fill:#FFBAC8;" cx="75.398" cy="207.546" rx="10.483" ry="2.739"/>
						</g>
					</g>
				</g>
				<g>
					<g>
						<g>
							<path style="fill:#EE4B4C;" d="M85.88,201.732c0-1.513-4.693-2.739-10.482-2.739c-5.789,0-10.482,1.226-10.482,2.739
								c0,0.674,0,2.859,0,3.533c0,1.513,4.693,2.739,10.482,2.739c5.789,0,10.482-1.226,10.482-2.739
								C85.88,204.591,85.88,202.406,85.88,201.732z"/>
						</g>
					</g>
					<g>
						<g>
							<path style="fill:#FFBAC8;" d="M85.88,201.732c0,1.513-4.693,2.739-10.483,2.739c-5.789,0-10.482-1.226-10.482-2.739
								c0-1.513,4.693-2.739,10.482-2.739C81.187,198.993,85.88,200.219,85.88,201.732z"/>
						</g>
					</g>
				</g>
				<g>
					<g>
						<g>
							<path style="fill:#EE4B4C;" d="M85.88,195.917c0-1.513-4.693-2.739-10.482-2.739c-5.789,0-10.482,1.226-10.482,2.739
								c0,0.674,0,2.859,0,3.533c0,1.513,4.693,2.739,10.482,2.739c5.789,0,10.482-1.226,10.482-2.739
								C85.88,198.777,85.88,196.591,85.88,195.917z"/>
						</g>
					</g>
					<g>
						<g>
							<ellipse style="fill:#FFBAC8;" cx="75.398" cy="195.917" rx="10.483" ry="2.739"/>
						</g>
					</g>
				</g>
				<g>
					<g>
						<g>
							<path style="fill:#EE4B4C;" d="M85.88,190.103c0-1.513-4.693-2.739-10.482-2.739c-5.789,0-10.482,1.226-10.482,2.739
								c0,0.674,0,2.859,0,3.533c0,1.513,4.693,2.739,10.482,2.739c5.789,0,10.482-1.226,10.482-2.739
								C85.88,192.963,85.88,190.777,85.88,190.103z"/>
						</g>
					</g>
					<g>
						<g>
							<ellipse style="fill:#FFBAC8;" cx="75.398" cy="190.103" rx="10.483" ry="2.739"/>
						</g>
					</g>
				</g>
				<g>
					<g>
						<g>
							<path style="fill:#EE4B4C;" d="M85.88,184.289c0-1.513-4.693-2.739-10.482-2.739c-5.789,0-10.482,1.226-10.482,2.739
								c0,0.674,0,2.859,0,3.533c0,1.513,4.693,2.739,10.482,2.739c5.789,0,10.482-1.226,10.482-2.739
								C85.88,187.148,85.88,184.962,85.88,184.289z"/>
						</g>
					</g>
					<g>
						<g>
							<ellipse style="fill:#FFBAC8;" cx="75.398" cy="184.289" rx="10.483" ry="2.739"/>
						</g>
					</g>
				</g>
				<g>
					<g>
						<g>
							<path style="fill:#EE4B4C;" d="M85.88,178.474c0-1.513-4.693-2.739-10.482-2.739c-5.789,0-10.482,1.226-10.482,2.739
								c0,0.674,0,2.859,0,3.533c0,1.513,4.693,2.739,10.482,2.739c5.789,0,10.482-1.226,10.482-2.739
								C85.88,181.334,85.88,179.148,85.88,178.474z"/>
						</g>
					</g>
					<g>
						<g>
							<ellipse style="fill:#FFBAC8;" cx="75.398" cy="178.474" rx="10.483" ry="2.739"/>
						</g>
					</g>
				</g>
				<g>
					<g>
						<g>
							<path style="fill:#EE4B4C;" d="M85.88,172.66c0-1.513-4.693-2.739-10.482-2.739c-5.789,0-10.482,1.226-10.482,2.739
								c0,0.674,0,2.859,0,3.533c0,1.513,4.693,2.739,10.482,2.739c5.789,0,10.482-1.226,10.482-2.739
								C85.88,175.519,85.88,173.333,85.88,172.66z"/>
						</g>
					</g>
					<g>
						<g>
							<ellipse style="fill:#FFBAC8;" cx="75.398" cy="172.66" rx="10.483" ry="2.739"/>
						</g>
					</g>
				</g>
			</g>
			<g>
				<g>
					<g>
						<g>
							<path style="fill:#EE4B4C;" d="M135.159,207.546c0-1.513-4.693-2.739-10.482-2.739c-5.789,0-10.483,1.226-10.483,2.739
								c0,0.674,0,2.86,0,3.533c0,1.513,4.693,2.739,10.483,2.739c5.789,0,10.482-1.226,10.482-2.739
								C135.159,210.406,135.159,208.22,135.159,207.546z"/>
						</g>
					</g>
					<g>
						<g>
							<ellipse style="fill:#FFBAC8;" cx="124.676" cy="207.546" rx="10.483" ry="2.739"/>
						</g>
					</g>
				</g>
				<g>
					<g>
						<g>
							<path style="fill:#EE4B4C;" d="M135.159,201.732c0-1.513-4.693-2.739-10.482-2.739c-5.789,0-10.483,1.226-10.483,2.739
								c0,0.674,0,2.859,0,3.533c0,1.513,4.693,2.739,10.483,2.739c5.789,0,10.482-1.226,10.482-2.739
								C135.159,204.591,135.159,202.406,135.159,201.732z"/>
						</g>
					</g>
					<g>
						<g>
							<path style="fill:#FFBAC8;" d="M135.159,201.732c0,1.513-4.693,2.739-10.482,2.739c-5.789,0-10.483-1.226-10.483-2.739
								c0-1.513,4.693-2.739,10.483-2.739C130.466,198.993,135.159,200.219,135.159,201.732z"/>
						</g>
					</g>
				</g>
				<g>
					<g>
						<g>
							<path style="fill:#EE4B4C;" d="M135.159,195.917c0-1.513-4.693-2.739-10.482-2.739c-5.789,0-10.483,1.226-10.483,2.739
								c0,0.674,0,2.859,0,3.533c0,1.513,4.693,2.739,10.483,2.739c5.789,0,10.482-1.226,10.482-2.739
								C135.159,198.777,135.159,196.591,135.159,195.917z"/>
						</g>
					</g>
					<g>
						<g>
							<ellipse style="fill:#FFBAC8;" cx="124.676" cy="195.917" rx="10.483" ry="2.739"/>
						</g>
					</g>
				</g>
				<g>
					<g>
						<g>
							<path style="fill:#EE4B4C;" d="M135.159,190.103c0-1.513-4.693-2.739-10.482-2.739c-5.789,0-10.483,1.226-10.483,2.739
								c0,0.674,0,2.859,0,3.533c0,1.513,4.693,2.739,10.483,2.739c5.789,0,10.482-1.226,10.482-2.739
								C135.159,192.963,135.159,190.777,135.159,190.103z"/>
						</g>
					</g>
					<g>
						<g>
							<ellipse style="fill:#FFBAC8;" cx="124.676" cy="190.103" rx="10.483" ry="2.739"/>
						</g>
					</g>
				</g>
				<g>
					<g>
						<g>
							<path style="fill:#EE4B4C;" d="M135.159,184.289c0-1.513-4.693-2.739-10.482-2.739c-5.789,0-10.483,1.226-10.483,2.739
								c0,0.674,0,2.859,0,3.533c0,1.513,4.693,2.739,10.483,2.739c5.789,0,10.482-1.226,10.482-2.739
								C135.159,187.148,135.159,184.962,135.159,184.289z"/>
						</g>
					</g>
					<g>
						<g>
							<ellipse style="fill:#FFBAC8;" cx="124.676" cy="184.289" rx="10.483" ry="2.739"/>
						</g>
					</g>
				</g>
				<g>
					<g>
						<g>
							<path style="fill:#EE4B4C;" d="M135.159,178.474c0-1.513-4.693-2.739-10.482-2.739c-5.789,0-10.483,1.226-10.483,2.739
								c0,0.674,0,2.859,0,3.533c0,1.513,4.693,2.739,10.483,2.739c5.789,0,10.482-1.226,10.482-2.739
								C135.159,181.334,135.159,179.148,135.159,178.474z"/>
						</g>
					</g>
					<g>
						<g>
							<ellipse style="fill:#FFBAC8;" cx="124.676" cy="178.474" rx="10.483" ry="2.739"/>
						</g>
					</g>
				</g>
				<g>
					<g>
						<g>
							<path style="fill:#EE4B4C;" d="M135.159,172.66c0-1.513-4.693-2.739-10.482-2.739c-5.789,0-10.483,1.226-10.483,2.739
								c0,0.674,0,2.859,0,3.533c0,1.513,4.693,2.739,10.483,2.739c5.789,0,10.482-1.226,10.482-2.739
								C135.159,175.519,135.159,173.333,135.159,172.66z"/>
						</g>
					</g>
					<g>
						<g>
							<ellipse style="fill:#FFBAC8;" cx="124.676" cy="172.66" rx="10.483" ry="2.739"/>
						</g>
					</g>
				</g>
				<g>
					<g>
						<g>
							<path style="fill:#EE4B4C;" d="M135.159,166.845c0-1.513-4.693-2.739-10.482-2.739c-5.789,0-10.483,1.226-10.483,2.739
								c0,0.674,0,2.859,0,3.533c0,1.513,4.693,2.739,10.483,2.739c5.789,0,10.482-1.226,10.482-2.739
								C135.159,169.705,135.159,167.519,135.159,166.845z"/>
						</g>
					</g>
					<g>
						<g>
							<ellipse style="fill:#FFBAC8;" cx="124.676" cy="166.845" rx="10.483" ry="2.739"/>
						</g>
					</g>
				</g>
				<g>
					<g>
						<g>
							<path style="fill:#EE4B4C;" d="M135.159,161.031c0-1.513-4.693-2.739-10.482-2.739c-5.789,0-10.483,1.226-10.483,2.739
								c0,0.674,0,2.859,0,3.533c0,1.513,4.693,2.739,10.483,2.739c5.789,0,10.482-1.226,10.482-2.739
								C135.159,163.89,135.159,161.705,135.159,161.031z"/>
						</g>
					</g>
					<g>
						<g>
							<path style="fill:#FFBAC8;" d="M135.159,161.031c0,1.513-4.693,2.739-10.482,2.739c-5.789,0-10.483-1.226-10.483-2.739
								c0-1.513,4.693-2.739,10.483-2.739C130.466,158.292,135.159,159.518,135.159,161.031z"/>
						</g>
					</g>
				</g>
			</g>
		</g>
		<g>
			<g>
				<g>
					<circle style="fill:#90E0D3;" cx="151.543" cy="301.245" r="18.625"/>
				</g>
			</g>
			<g>
				<g>
					<path style="fill:#161415;" d="M151.36,294.493c1.701,0,3.282,0.516,4.595,1.399c0.022-0.184,0.056-0.364,0.056-0.553
						c0-2.568-2.082-4.651-4.65-4.651c-2.568,0-4.651,2.082-4.651,4.651c0,0.19,0.034,0.37,0.056,0.553
						C148.078,295.009,149.659,294.493,151.36,294.493z"/>
				</g>
				<g>
					<path style="fill:#161415;" d="M162.319,301.839h-3.612c-0.301-0.973-0.79-1.864-1.424-2.63l4.377-3.312
						c0.279-0.211,0.334-0.608,0.123-0.888c-0.212-0.28-0.609-0.336-0.889-0.123l-4.51,3.413c-1.348-1.166-3.102-1.877-5.024-1.877
						c-1.923,0-3.676,0.71-5.024,1.877l-4.51-3.413c-0.28-0.213-0.678-0.157-0.889,0.123c-0.211,0.28-0.156,0.677,0.123,0.888
						l4.376,3.312c-0.635,0.766-1.123,1.656-1.424,2.63H140.4c-0.351,0-0.634,0.284-0.634,0.634s0.284,0.634,0.634,0.634h3.343
						c-0.043,0.33-0.073,0.663-0.073,1.005c0,1.165,0.267,2.266,0.73,3.255l-3.34,2.528c-0.279,0.211-0.334,0.608-0.123,0.888
						c0.125,0.165,0.315,0.251,0.507,0.251c0.133,0,0.268-0.042,0.382-0.129l3.208-2.428c1.387,2.006,3.702,3.323,6.326,3.323
						s4.938-1.317,6.326-3.323l3.208,2.428c0.115,0.087,0.249,0.129,0.382,0.129c0.192,0,0.382-0.087,0.507-0.251
						c0.211-0.28,0.156-0.678-0.123-0.888l-3.341-2.528c0.464-0.99,0.73-2.09,0.73-3.255c0-0.341-0.03-0.675-0.073-1.005h3.343
						c0.35,0,0.634-0.284,0.634-0.634S162.669,301.839,162.319,301.839z"/>
				</g>
			</g>
		</g>
		<g>
			<g>
				<g>
					<path style="fill:#161415;" d="M381.439,162.087c4.823,0,8.747,3.924,8.747,8.747v1.306h3.795v-1.306
						c0-6.915-5.626-12.542-12.542-12.542h-0.215c-6.916,0-12.542,5.627-12.542,12.542v13.823h3.795v-13.823
						c0-4.823,3.924-8.747,8.747-8.747H381.439z"/>
				</g>
			</g>
			<g>
				<g>
					
						<ellipse transform="matrix(0.2312 -0.9729 0.9729 0.2312 112.045 514.131)" style="fill:#EE4B4C;" cx="381.332" cy="186.171" rx="14.507" ry="14.507"/>
				</g>
			</g>
			<g>
				<g>
					<rect x="379.373" y="179.497" style="fill:#FFFFFF;" width="3.917" height="8.414"/>
				</g>
			</g>
			<g>
				<g>
					<path style="fill:#FFFFFF;" d="M385.103,189.072c0,2.083-1.689,3.772-3.772,3.772c-2.083,0-3.772-1.689-3.772-3.772
						s1.689-3.772,3.772-3.772C383.415,185.3,385.103,186.989,385.103,189.072z"/>
				</g>
			</g>
		</g>
		<g>
			<g>
				<g>
					<g>
						<path style="fill:#161415;" d="M105.631,326.116v34.296c0,10.648,5.182,20.629,13.89,26.756l18.128,12.755l18.434-12.77
							c8.822-6.111,14.085-16.161,14.085-26.892v-34.145H105.631z"/>
					</g>
				</g>
				<g>
					<g>
						<path style="fill:#EE4B4C;" d="M111.397,332.711v28.167c0,8.745,4.256,16.943,11.408,21.974l14.889,10.475l15.139-10.488
							c7.245-5.019,11.568-13.273,11.568-22.087v-28.043H111.397z"/>
					</g>
				</g>
			</g>
			<g>
				<g>
					<g>
						<polygon style="fill:#FFFFFF;" points="127.812,345.545 137.19,322.313 149.977,322.313 139.747,340.43 150.404,340.43 
							138.682,360.464 144.862,360.464 133.779,378.367 137.403,364.513 132.288,364.513 138.468,345.545 						"/>
					</g>
				</g>
			</g>
		</g>
		<g>
			<g>
				<g>
					<g>
						<rect x="38.899" y="238.568" style="fill:#EE4B4C;" width="86.109" height="26.187"/>
					</g>
				</g>
				<g>
					<g>
						<rect x="38.899" y="240.095" style="fill:#FFBAC8;" width="86.109" height="1.326"/>
					</g>
				</g>
				<g>
					<g>
						<rect x="38.899" y="242.859" style="fill:#FFBAC8;" width="86.109" height="1.326"/>
					</g>
				</g>
				<g>
					<g>
						<rect x="38.899" y="245.624" style="fill:#FFBAC8;" width="86.109" height="1.326"/>
					</g>
				</g>
				<g>
					<g>
						<rect x="38.899" y="248.388" style="fill:#FFBAC8;" width="86.109" height="1.326"/>
					</g>
				</g>
				<g>
					<g>
						<rect x="38.899" y="251.152" style="fill:#FFBAC8;" width="86.109" height="1.326"/>
					</g>
				</g>
				<g>
					<g>
						<rect x="38.899" y="253.916" style="fill:#FFBAC8;" width="86.109" height="1.326"/>
					</g>
				</g>
				<g>
					<g>
						<rect x="38.899" y="256.68" style="fill:#FFBAC8;" width="86.109" height="1.326"/>
					</g>
				</g>
				<g>
					<g>
						<rect x="38.899" y="259.445" style="fill:#FFBAC8;" width="86.109" height="1.326"/>
					</g>
				</g>
				<g>
					<g>
						<rect x="38.899" y="262.209" style="fill:#FFBAC8;" width="86.109" height="1.326"/>
					</g>
				</g>
				<g>
					<g>
						<polygon style="fill:#90E0D3;" points="114.337,230.13 49.571,230.13 38.899,238.568 125.008,238.568 						"/>
					</g>
				</g>
				<g>
					<g>
						<polygon style="fill:#161415;" points="114.337,230.13 61.88,230.13 56.983,238.568 125.008,238.568 						"/>
					</g>
				</g>
			</g>
			<g>
				<g>
					<path style="fill:#90E0D3;" d="M114.337,230.13c0,0-42.292,0.459-57.004-12.548l-10.675,9.239c0,0,26.003,13.447,78.349,11.747
						L114.337,230.13z"/>
				</g>
			</g>
			<g>
				<g>
					<polygon style="fill:#EE4B4C;" points="92.496,228.884 98.417,238.482 98.417,265.124 107.746,265.124 107.746,238.303 
						101.646,229.602 					"/>
				</g>
			</g>
		</g>
		<g>
			<g>
				<g>
					<polygon style="fill:#161415;" points="420.212,196.222 420.212,202.778 420.212,202.778 420.212,213.094 423.817,213.094 
						423.817,205.774 425.92,204.483 					"/>
				</g>
				<g>
					<g>
						<rect x="380.46" y="210.691" style="fill:#EE4B4C;" width="81.709" height="50.067"/>
					</g>
				</g>
				<g>
					<g>
						<rect x="387.269" y="215.698" style="fill:#90E0D3;" width="68.091" height="8.812"/>
					</g>
				</g>
				<g>
					<g>
						<g>
							<rect x="387.469" y="230.722" style="fill:#FFFFFF;" width="24.232" height="24.232"/>
						</g>
					</g>
					<g>
						<g>
							<g>
								<path style="fill:#EE4B4C;" d="M403.795,238.189c0,2.518-2.042,6.214-4.56,6.214s-4.56-3.695-4.56-6.214
									c0-2.518,2.042-4.56,4.56-4.56S403.795,235.671,403.795,238.189z"/>
							</g>
						</g>
						<g>
							<g>
								<path style="fill:#EE4B4C;" d="M407.076,247.83c-0.646-0.637-1.474-1.048-2.283-1.46c-0.809-0.411-1.63-0.846-2.243-1.514
									c-0.097-0.106-0.186-0.222-0.27-0.341c-0.874,0.92-1.92,1.53-3.046,1.53c-1.126,0-2.171-0.61-3.046-1.53
									c-0.084,0.119-0.172,0.235-0.27,0.341c-0.613,0.669-1.434,1.103-2.243,1.514c-0.809,0.411-1.637,0.823-2.283,1.46
									c-1.086,1.071-1.522,2.755-1.092,4.218l8.933-0.002l8.933,0.002C408.598,250.584,408.162,248.901,407.076,247.83z"/>
							</g>
						</g>
					</g>
				</g>
				<g>
					<g>
						<g>
							<rect x="418.661" y="231.418" style="fill:#FFBAC8;" width="35.898" height="2.403"/>
						</g>
					</g>
					<g>
						<g>
							<rect x="418.661" y="241.707" style="fill:#FFBAC8;" width="35.898" height="2.403"/>
						</g>
					</g>
					<g>
						<g>
							<rect x="418.661" y="251.996" style="fill:#FFBAC8;" width="35.898" height="2.403"/>
						</g>
					</g>
				</g>
			</g>
			<g>
				<g>
					<path style="fill:#161415;" d="M441.791,182.403c0-1.77-1.435-3.204-3.204-3.204c-1.77,0-3.204,1.435-3.204,3.204
						c0,1.163,0.625,2.171,1.552,2.733v26.692c0,2.974-1.957,5.499-4.65,6.358c-0.543-0.423-1.217-0.686-1.959-0.686
						c-1.77,0-3.204,1.435-3.204,3.204c0,1.77,1.435,3.204,3.204,3.204c1.45,0,2.66-0.969,3.056-2.29
						c4.146-1.325,7.158-5.211,7.158-9.791v-26.901C441.296,184.341,441.791,183.434,441.791,182.403z"/>
				</g>
			</g>
		</g>
		<g>
			<g>
				<g>
					<circle style="fill:#EE4B4C;" cx="424.891" cy="287.168" r="18.309"/>
				</g>
			</g>
			<g>
				<g>
					<path style="fill:#FFBAC8;" d="M424.89,306.895c-19.441,0-34.851-18.046-35.497-18.814l-0.768-0.912l0.768-0.912
						c0.646-0.768,16.056-18.815,35.497-18.815c19.443,0,34.852,18.046,35.499,18.815l0.768,0.912l-0.768,0.912
						C459.743,288.848,444.333,306.895,424.89,306.895z M392.383,287.167c3.386,3.638,16.805,16.893,32.507,16.893
						c15.726,0,29.127-13.251,32.509-16.89c-3.386-3.638-16.805-16.893-32.509-16.893
						C409.166,270.276,395.765,283.527,392.383,287.167z"/>
				</g>
			</g>
		</g>
		<g>
			<g>
				<polygon style="fill:#FFBAC8;" points="251.395,301.65 227.879,292.986 203.027,301.65 215.111,301.65 210.379,315.812 
					238.515,315.812 239.31,301.65 				"/>
			</g>
			<g>
				<polygon style="fill:#FFBAC8;" points="247.922,305.622 276.218,315.812 301.602,305.622 288.19,305.622 282.277,292.986 
					259.03,292.986 261.334,305.622 				"/>
			</g>
		</g>
		<g>
			<g>
				<g>
					<g>
						<ellipse style="fill:#EE4B4C;" cx="252.481" cy="264.037" rx="112.65" ry="25.334"/>
					</g>
				</g>
				<g>
					<g>
						<g>
							<path style="fill:#161415;" d="M192.326,230.598c5.445,12.399,3.624,25.345,6.501,38.575
								c0.222,1.022,1.119,1.753,2.166,1.753h101.829c1.046,0,1.943-0.731,2.165-1.753c2.877-13.231,1.056-26.176,6.501-38.575
								c5.405-12.308,12.017-24.066,17.179-36.478c5.161-12.411,8.881-25.733,8.077-39.151c-0.422-7.048-2.149-14.136-5.925-20.102
								c-3.775-5.967-9.752-10.719-16.674-12.113c-8.63-1.739-17.329,1.748-25.725,4.394c-7.47,2.354-20.844,4.964-20.844,4.964
								l-15.313,2.477c-0.235,0.038-0.475,0.038-0.71,0l-15.313-2.477c0,0-13.375-2.61-20.844-4.964
								c-8.397-2.647-17.095-6.133-25.725-4.394c-6.922,1.394-12.899,6.147-16.674,12.113s-5.502,13.054-5.925,20.102
								c-0.804,13.418,2.915,26.74,8.077,39.151C180.309,206.532,186.922,218.29,192.326,230.598z"/>
						</g>
					</g>
					<g>
						<g>
							<g>
								<g>
									<circle style="fill:#EE4B4C;" cx="245" cy="165.012" r="3.154"/>
								</g>
								<g>
									<g>
										<path style="fill:#2B2B2B;" d="M244.984,197.606h-0.019c-0.52,0-0.942-0.422-0.942-0.942v-32.112
											c0-0.52,0.422-0.942,0.942-0.942h0.019c0.52,0,0.942,0.422,0.942,0.942v32.112
											C245.926,197.184,245.505,197.606,244.984,197.606z"/>
									</g>
									<g>
										<g>
											<path style="fill:#EE4B4C;" d="M247.917,201h-5.75l0.653-4.746c0.151-1.101,1.092-1.921,2.203-1.921h0.039
												c1.111,0,2.052,0.82,2.203,1.921L247.917,201z"/>
										</g>
									</g>
								</g>
							</g>
							<g>
								<g>
									<circle style="fill:#EE4B4C;" cx="256.25" cy="165.012" r="3.154"/>
								</g>
								<g>
									<g>
										<path style="fill:#2B2B2B;" d="M256.234,197.606h-0.019c-0.52,0-0.942-0.422-0.942-0.942v-32.112
											c0-0.52,0.422-0.942,0.942-0.942h0.019c0.52,0,0.942,0.422,0.942,0.942v32.112
											C257.176,197.184,256.755,197.606,256.234,197.606z"/>
									</g>
									<g>
										<g>
											<path style="fill:#EE4B4C;" d="M259.167,201h-5.75l0.653-4.746c0.151-1.101,1.092-1.921,2.203-1.921h0.039
												c1.111,0,2.052,0.82,2.203,1.921L259.167,201z"/>
										</g>
									</g>
								</g>
							</g>
						</g>
						<g>
							<g>
								<g>
									<path style="fill:#2B2B2B;" d="M319.785,81.727c-2.855-5.495-6.294-8.529-11.521-11.765
										c-9.228-5.712-17.49-13.027-24.315-21.532c-4.691-5.845-8.788-12.327-14.644-16.964
										c-4.892-3.873-11.507-6.211-17.398-4.859c-5.891-1.352-12.506,0.985-17.398,4.859c-5.857,4.637-9.954,11.119-14.644,16.964
										c-6.825,8.504-15.086,15.82-24.315,21.532c-5.227,3.235-8.666,6.27-11.521,11.765c-3.938,7.579-0.588,17.196,5.035,23.588
										c5.623,6.392,10.777,10.65,17.24,16.164c7.619,6.501,13.724,14.816,17.681,24.083c1.813,4.245,3.282,8.843,6.553,12.066
										c5.398,5.32,13.838,5.276,21.368,4.85c7.531,0.426,15.971,0.47,21.369-4.85c3.271-3.224,4.74-7.822,6.553-12.066
										c3.957-9.267,10.062-17.582,17.681-24.083c6.463-5.515,11.617-9.772,17.24-16.164
										C320.373,98.923,323.723,89.306,319.785,81.727z"/>
								</g>
							</g>
							<g>
								<g>
									<path style="fill:#161415;" d="M315.467,86.664c-3.06-6.012-7.935-8.26-13.966-11.354
										c-8.758-4.493-25.426-9.557-49.553-9.557s-40.795,5.064-49.553,9.557c-6.031,3.094-10.906,5.342-13.966,11.354
										c-2.576,5.062-1.13,11.429,2.234,16.013c3.364,4.585,5.935,7.715,10.919,10.492c4.984,2.777,10.168,5.363,14.354,9.224
										c4.642,4.282,7.785,9.882,10.971,15.318c3.186,5.437,6.597,10.931,11.59,14.805c3.798,2.948,8.73,4.795,13.451,4.455
										c4.722,0.34,9.653-1.508,13.451-4.455c4.993-3.875,8.405-9.369,11.59-14.805c3.185-5.437,6.329-11.036,10.971-15.318
										c4.186-3.861,9.37-6.447,14.354-9.224c4.983-2.777,7.555-5.907,10.919-10.492
										C316.597,98.093,318.044,91.726,315.467,86.664z"/>
								</g>
							</g>
							<g>
								<g>
									<path style="fill:#EE4B4C;" d="M282.427,91.243c-1.265-5.863-4.412-11.234-8.863-14.989
										c-3.108-2.622-11.585-4.41-17.638-5.223h-8.037c-6.054,0.814-14.53,2.601-17.638,5.223
										c-4.451,3.755-7.597,9.126-8.863,14.989c-1.255,5.815-0.679,11.863-0.085,17.603c0.663,6.398,2.041,12.831,3.621,18.695
										c1.529,5.676,4.662,10.505,8.439,14.804c3.119,3.55,6.977,8.181,15.069,9.291h6.95c8.092-1.11,11.95-5.741,15.069-9.291
										c3.777-4.299,6.91-9.129,8.439-14.804c1.58-5.864,2.959-12.298,3.621-18.695
										C283.106,103.106,283.682,97.058,282.427,91.243z"/>
								</g>
							</g>
							<g>
								<g>
									<path style="fill:#161415;" d="M290.968,106.049c-0.128-1.203-0.286-2.403-0.479-3.597
										c-1.593-9.824-5.555-18.825-11.16-25.116c-3.914-4.393-14.588-7.388-22.211-8.752h-10.121
										c-7.623,1.364-18.297,4.359-22.211,8.752c-5.605,6.291-9.567,15.292-11.16,25.116c-0.194,1.193-0.351,2.393-0.479,3.597
										C239.14,94.663,265.081,94.616,290.968,106.049z"/>
								</g>
							</g>
						</g>
					</g>
					<g>
						<g>
							<g>
								<g>
									<path style="fill:#2B2B2B;" d="M182.896,227.706c5.471-13.822,3.816-20.454,9.229-34.556s7.026-31.015,4.286-45.869
										c-1.228-6.654-3.781-13.061-7.467-18.736c-1.173-1.805-2.665-3.672-4.783-4.057c-2.342-0.426-4.567,1.115-6.312,2.734
										c-11.065,10.27-14.836,25.982-18.011,40.741c-4.042,18.788-4.785,27.081-14.075,43.904
										c-4.726,8.557-9.407,16.845-11.789,26.325c-2.382,9.481,0.352,21.284,9.216,25.406c6.236,2.899,13.948,1.111,19.335-3.164
										c5.388-4.274,9.062-11.412,12.322-17.467C178.879,235.481,180.365,234.1,182.896,227.706z"/>
								</g>
							</g>
							<g>
								<path style="fill:#161415;" d="M162.626,230.809c-0.781-9.879,2.346-20.508,9.559-32.493
									c2.609-4.336,5.54-8.562,8.375-12.648c3.541-5.105,7.203-10.385,10.25-15.903c6.505-11.779,8.856-22.66,6.99-32.34
									l0.981-0.189c1.912,9.917-0.475,21.023-7.097,33.013c-3.071,5.562-6.748,10.863-10.304,15.99
									c-2.825,4.073-5.746,8.285-8.339,12.594c-7.102,11.8-10.183,22.234-9.419,31.898L162.626,230.809z"/>
							</g>
							<g>
								<g>
									<path style="fill:#161415;" d="M214.999,234.238c0-9.092-7.412-16.37-16.504-16.359c-8.369,0.01-16.738-0.388-25.068-1.205
										c-8.621-0.845-17.867-2.014-25.489,2.104c-8.015,4.33-12.222,13.692-12.995,22.768c-0.586,6.878,0.67,14.28,5.25,19.445
										c5.658,6.381,15.23,7.973,23.605,6.362c8.374-1.612,15.946-5.896,23.562-9.733c5.717-2.881,11.548-5.537,17.471-7.965
										c6.146-2.52,10.167-8.491,10.167-15.133V234.238z"/>
								</g>
							</g>
							<g>
								<path style="fill:#2B2B2B;" d="M185.015,258.215c-2.532-6.372-3.028-13.536-1.398-20.196
									c1.63-6.66,5.377-12.785,10.565-17.268c-6.72,3.074-11.897,9.335-13.653,16.513
									C178.772,244.442,180.473,252.385,185.015,258.215z"/>
								<path style="fill:#161415;" d="M218.666,226.696c-2.437-0.788-5.107-0.022-7.412,1.093
									c-6.817,3.298-11.79,9.442-16.021,15.723c-2.164,3.211-4.272,6.771-4.143,10.641c0.058,1.756,0.634,3.559,1.905,4.773
									c1.887,1.801,4.896,1.915,7.36,1.06c2.464-0.855,4.552-2.509,6.712-3.972c6.642-4.5,14.584-7.403,22.595-6.973
									c2.672,0.143,5.319,0.651,7.994,0.707c2.675,0.056,5.47-0.388,7.643-1.949c1.104-0.793,2.077-2.144,1.632-3.428
									c-0.516-1.491-2.444-1.787-4.011-1.973c-6.786-0.802-13.218-4.291-17.592-9.542
									C223.363,230.495,221.589,227.641,218.666,226.696z"/>
								<g>
									<path style="fill:#2B2B2B;" d="M226.453,253.562c1.894,0.32,3.59-1.25,3.355-3.156c-0.846-6.858-4.298-13.105-6.414-19.851
										c-0.913-2.91-2.083-5.899-4.402-7.88c-2.319-1.981-6.103-2.557-8.352-0.497c-1.331,1.219-2.004,3.19-3.653,3.926
										c-2.156,0.961-4.954-0.683-6.928,0.61c-1.314,0.861-1.619,2.641-1.656,4.212c-0.038,1.571,0.032,3.275-0.884,4.552
										c-1.831,2.551-6.622,2.083-7.615,5.062c-0.68,2.042,1.084,4.158,0.896,6.302c-0.245,2.796-3.663,4.633-3.613,7.439
										c0.028,1.601,1.202,2.921,2.307,4.081c4.124,4.33,8.247,8.659,12.371,12.989c0.588,0.617,1.195,1.249,1.968,1.607
										c0.773,0.358,1.762,0.385,2.417-0.161c1.137-0.948,0.611-2.768-0.006-4.113c-1.759-3.831-4.67-8.55-6.796-12.664
										c-0.195-0.378,0.309-0.723,0.591-0.405c2.615,2.954,5.503,6.553,7.962,9.135c0.682,0.716,2.187,1.233,3.067,1.612
										c0.747,0.322,1.617,0.353,2.322-0.051c1.649-0.947,1.021-2.906,0.33-4.364c-2.281-4.815-5.669-10.828-8.262-15.981
										c-0.154-0.305,0.265-0.572,0.475-0.304c3.195,4.072,7.127,8.941,9.989,12.653c0.702,0.91,1.447,1.855,2.497,2.324
										c1.05,0.468,2.493,0.269,3.051-0.735c0.367-0.66,1.006-2.745,0.863-3.486c-1.492-7.766-9.917-16.417-9.167-21.25
										c3.375,5.62,7.093,11.535,10.468,17.155C224.002,252.934,225.178,253.347,226.453,253.562z"/>
								</g>
								<path style="fill:#2B2B2B;" d="M235.452,244.779c-0.248,1.186,0.712,2.355,1.85,2.77c1.138,0.415,2.394,0.267,3.595,0.109
									c1.022-0.134,2.082-0.285,2.949-0.844c0.867-0.559,1.481-1.65,1.16-2.63c-0.272-0.829-1.128-1.348-1.985-1.512
									c-0.857-0.164-1.739-0.048-2.611-0.012c-0.975,0.04-1.968-0.019-2.909,0.24
									C236.561,243.157,235.652,243.824,235.452,244.779z"/>
								<path style="fill:#2B2B2B;" d="M235.575,240.645c-3.562-1.637-7.023-3.636-9.755-6.447c0.984,1.879,2.124,3.708,3.66,5.171
									c1.536,1.463,3.51,2.543,5.627,2.696c0.52,0.037,1.223-0.154,1.203-0.675C236.297,241.021,235.91,240.799,235.575,240.645z"
									/>
							</g>
						</g>
						<g>
							<g>
								<g>
									<path style="fill:#2B2B2B;" d="M319.137,227.706c-5.24-13.622-3.66-20.319-9.229-34.556
										c-5.503-14.067-7.026-31.015-4.286-45.869c1.228-6.654,3.781-13.061,7.467-18.736c1.173-1.805,2.665-3.672,4.783-4.057
										c2.342-0.426,4.567,1.115,6.312,2.734c11.065,10.27,14.836,25.982,18.011,40.741c4.042,18.788,4.785,27.081,14.075,43.904
										c4.726,8.557,9.407,16.845,11.789,26.325c2.382,9.481-0.352,21.284-9.216,25.406c-6.236,2.899-13.948,1.111-19.335-3.164
										c-5.388-4.274-9.062-11.412-12.322-17.467C323.154,235.481,321.606,234.124,319.137,227.706z"/>
								</g>
							</g>
							<g>
								<path style="fill:#161415;" d="M340.267,236.582c-0.172,0-0.325-0.065-0.435-0.191l-0.01-0.11
									c-8.087-9.059-12.611-20.73-16.297-31.996c-0.619-1.892-1.223-3.793-1.828-5.695c-2.986-9.394-6.074-19.107-11.041-27.735
									c-0.58-1.008-1.186-2.003-1.794-2.999c-1.74-2.857-3.54-5.811-4.68-9.033c-1.802-5.096-1.47-10.023,0.911-13.519
									l0.826,0.563c-2.167,3.183-2.464,7.901-0.794,12.624c1.104,3.123,2.877,6.033,4.591,8.846
									c0.611,1.003,1.222,2.006,1.807,3.021c5.021,8.722,8.125,18.487,11.127,27.932c0.605,1.899,1.208,3.798,1.826,5.688
									c3.647,11.151,8.118,22.696,16.068,31.614l0.064-0.163l0.385,0.532c-0.001,0.253-0.169,0.467-0.448,0.571
									C340.449,236.565,340.356,236.582,340.267,236.582z M340.182,235.954l0.062,0.001l0.214-0.139l0.057-0.147
									c-0.123-0.091-0.263-0.098-0.32-0.076c-0.059,0.022-0.159,0.118-0.191,0.266L340.182,235.954z"/>
							</g>
							<g>
								<g>
									<path style="fill:#161415;" d="M369.672,241.547c-0.773-9.077-4.98-18.438-12.995-22.768
										c-7.622-4.117-16.867-2.949-25.489-2.104c-7.286,0.714-14.603,1.109-21.923,1.192c-8.998,0.101-16.266,7.357-16.266,16.356
										v1.738c0,6.6,3.981,12.518,10.058,15.094c4.801,2.036,9.539,4.22,14.197,6.567c7.616,3.837,15.187,8.121,23.562,9.733
										c8.374,1.612,17.947,0.02,23.605-6.362C369.001,255.827,370.258,248.426,369.672,241.547z"/>
								</g>
							</g>
							<g>
								<path style="fill:#2B2B2B;" d="M318.625,258.215c2.532-6.372,3.028-13.536,1.398-20.196s-5.377-12.785-10.565-17.268
									c6.72,3.074,11.897,9.335,13.653,16.513C324.868,244.442,323.167,252.385,318.625,258.215z"/>
								<path style="fill:#161415;" d="M284.974,226.696c2.436-0.788,5.107-0.022,7.412,1.093
									c6.817,3.298,11.79,9.442,16.022,15.723c2.164,3.211,4.272,6.771,4.143,10.641c-0.058,1.756-0.634,3.559-1.905,4.773
									c-1.887,1.801-4.896,1.915-7.36,1.06c-2.464-0.855-4.552-2.509-6.712-3.972c-6.642-4.5-14.584-7.403-22.595-6.973
									c-2.672,0.143-5.319,0.651-7.994,0.707c-2.675,0.056-5.47-0.388-7.643-1.949c-1.104-0.793-2.077-2.144-1.632-3.428
									c0.516-1.491,2.444-1.787,4.011-1.973c6.786-0.802,13.218-4.291,17.592-9.542
									C280.278,230.495,282.052,227.641,284.974,226.696z"/>
								<g>
									<path style="fill:#2B2B2B;" d="M277.187,253.562c-1.894,0.32-3.59-1.25-3.355-3.156c0.846-6.858,4.298-13.105,6.414-19.851
										c0.913-2.91,2.083-5.899,4.402-7.88c2.319-1.981,6.103-2.557,8.352-0.497c1.332,1.219,2.004,3.19,3.653,3.926
										c2.156,0.961,4.954-0.683,6.928,0.61c1.315,0.861,1.619,2.641,1.657,4.212c0.038,1.571-0.032,3.275,0.884,4.552
										c1.831,2.551,6.622,2.083,7.615,5.062c0.68,2.042-1.084,4.158-0.896,6.302c0.245,2.796,3.663,4.633,3.613,7.439
										c-0.029,1.601-1.202,2.921-2.307,4.081c-4.124,4.33-8.247,8.659-12.371,12.989c-0.588,0.617-1.195,1.249-1.968,1.607
										c-0.773,0.358-1.762,0.385-2.417-0.161c-1.137-0.948-0.611-2.768,0.006-4.113c1.759-3.831,4.669-8.55,6.796-12.664
										c0.195-0.378-0.309-0.723-0.591-0.405c-2.615,2.954-5.502,6.553-7.962,9.135c-0.682,0.716-2.187,1.233-3.067,1.612
										c-0.747,0.322-1.617,0.353-2.322-0.051c-1.649-0.947-1.021-2.906-0.33-4.364c2.281-4.815,5.669-10.828,8.262-15.981
										c0.154-0.305-0.264-0.572-0.475-0.304c-3.195,4.072-7.127,8.941-9.989,12.653c-0.702,0.91-1.447,1.855-2.497,2.324
										c-1.05,0.468-2.493,0.269-3.051-0.735c-0.366-0.66-1.006-2.745-0.863-3.486c1.492-7.766,9.917-16.417,9.167-21.25
										c-3.375,5.62-7.093,11.535-10.468,17.155C279.638,252.934,278.462,253.347,277.187,253.562z"/>
								</g>
								<path style="fill:#2B2B2B;" d="M268.189,244.779c0.248,1.186-0.713,2.355-1.85,2.77c-1.138,0.415-2.394,0.267-3.595,0.109
									c-1.023-0.134-2.082-0.285-2.949-0.844c-0.867-0.559-1.481-1.65-1.16-2.63c0.272-0.829,1.128-1.348,1.985-1.512
									c0.857-0.164,1.739-0.048,2.611-0.012c0.975,0.04,1.968-0.019,2.909,0.24C267.08,243.157,267.989,243.824,268.189,244.779z"
									/>
								<path style="fill:#2B2B2B;" d="M268.066,240.645c3.562-1.637,7.022-3.636,9.755-6.447c-0.984,1.879-2.124,3.708-3.661,5.171
									c-1.536,1.463-3.51,2.543-5.626,2.696c-0.52,0.037-1.223-0.154-1.203-0.675
									C267.344,241.021,267.731,240.799,268.066,240.645z"/>
							</g>
						</g>
					</g>
				</g>
			</g>
			<g>
				<path style="fill:#161415;" d="M251.899,93.575c-11.615-0.265-23.281,1.786-34.077,6.04c0.43,5.261,2.914,9.937,3.344,15.197
					c3.752-1.352,7.887-0.156,11.739,0.884c3.852,1.04,8.187,1.865,11.657-0.092c1.411-0.796,2.548-1.992,3.891-2.895
					c0.694-0.466,1.492-0.849,2.308-1.033l0,0.113c0.369-0.144,0.752-0.214,1.138-0.228c0.387,0.014,0.769,0.085,1.138,0.228
					l0-0.113c0.817,0.184,1.614,0.567,2.308,1.033c1.344,0.903,2.48,2.099,3.891,2.895c3.47,1.956,7.805,1.131,11.657,0.092
					c3.852-1.04,7.987-2.236,11.739-0.884c0.43-5.261,2.914-9.937,3.344-15.197C275.18,95.361,263.515,93.311,251.899,93.575z"/>
			</g>
			<g>
				<path style="fill:#161415;" d="M252.737,60.471c16.082,0,30.509,2.203,40.38,5.693c-7.564-5.403-22.801-9.097-40.38-9.097
					s-32.816,3.694-40.38,9.097C222.228,62.674,236.654,60.471,252.737,60.471z"/>
			</g>
			<g>
				<path style="fill:#90E0D3;" d="M252.537,63.828c16.082,0,30.509,1.524,40.38,3.938c-7.564-3.738-22.801-6.294-40.38-6.294
					s-32.816,2.556-40.38,6.294C222.028,65.352,236.454,63.828,252.537,63.828z"/>
			</g>
			<g>
				<path style="fill:#FFBAC8;" d="M254.479,116.6l-0.044-0.044c-1.325-1.325-3.473-1.325-4.797,0l-0.044,0.044
					c-1.247,1.247-2.939,1.948-4.704,1.948h-20.91c0.531,2.865,1.115,5.684,1.748,8.38c1.484,6.315,4.523,11.689,8.188,16.472
					c3.026,3.949,6.769,9.102,14.62,10.337h6.743c7.851-1.235,11.594-6.388,14.62-10.337c3.664-4.783,6.704-10.157,8.188-16.472
					c0.633-2.696,1.217-5.516,1.748-8.38h-20.652C257.418,118.549,255.726,117.848,254.479,116.6z"/>
			</g>
		</g>
		<g>
			<g>
				<g>
					<g>
						<g>
							<path style="fill:#90E0D3;" d="M191.499,279.337h119.599c3.745,0,6.986-2.605,7.792-6.262l14.032-63.669
								c0.673-3.053-1.651-5.945-4.778-5.945H174.453c-3.126,0-5.451,2.892-4.778,5.945l14.032,63.669
								C184.513,276.733,187.754,279.337,191.499,279.337z"/>
						</g>
					</g>
					<g>
						<g>
							<ellipse style="fill:#FFFFFF;" cx="248.671" cy="241.229" rx="17.118" ry="9.093"/>
						</g>
					</g>
				</g>
				<g>
					<path style="fill:#FFFFFF;" d="M328.838,205.965c0,0.719-0.583,1.302-1.302,1.302H174.933c-0.719,0-1.302-0.583-1.302-1.302
						l0,0c0-0.719,0.583-1.302,1.302-1.302h152.604C328.256,204.663,328.838,205.246,328.838,205.965L328.838,205.965z"/>
				</g>
			</g>
		</g>
		<g>
			<g>
				<g>
					<g>
						<polygon style="fill:#EE4B4C;" points="318.665,389.829 186.188,389.829 188.534,318.905 316.319,318.905 						"/>
					</g>
				</g>
				<g>
					<g>
						<polygon style="fill:#161415;" points="316.893,387.528 187.673,387.528 189.872,321.349 314.694,321.349 						"/>
					</g>
				</g>
				<g>
					<g>
						<polygon style="fill:#EE4B4C;" points="343.413,417.261 161.416,417.261 185.733,388.764 319.096,388.764 						"/>
					</g>
				</g>
				<g>
					<g>
						<polygon style="fill:#FFBAC8;" points="311.037,390.49 192.481,390.49 181.419,403.454 322.099,403.454 						"/>
					</g>
				</g>
				<g>
					<g>
						<polygon style="fill:#90E0D3;" points="221.8,404.748 215.563,415.822 287.956,415.822 281.718,404.748 						"/>
					</g>
				</g>
			</g>
			<g>
				<g>
					<rect x="161.548" y="417.225" style="fill:#161415;" width="181.997" height="4.53"/>
				</g>
			</g>
			<g>
				<g>
					<path style="fill:#EE4B4C;" d="M290.2,361.135h-74.249c-1.022,0-1.851-0.829-1.851-1.851v-0.037
						c0-1.022,0.829-1.851,1.851-1.851H290.2c1.022,0,1.851,0.829,1.851,1.851v0.037C292.051,360.306,291.222,361.135,290.2,361.135
						z"/>
				</g>
			</g>
			<g>
				<g>
					<path style="fill:#FFFFFF;" d="M233.426,360.056h-16.841c-0.393,0-0.712-0.319-0.712-0.712v-0.014
						c0-0.393,0.319-0.712,0.712-0.712h16.841c0.393,0,0.712,0.319,0.712,0.712v0.014
						C234.138,359.737,233.819,360.056,233.426,360.056z"/>
				</g>
			</g>
			<g>
				<g>
					<path style="fill:#EE4B4C;" d="M241.634,349.226l8.607-14.908c1.19-2.061,4.165-2.061,5.356,0l8.607,14.908
						c1.19,2.061-0.298,4.638-2.678,4.638h-17.215C241.931,353.864,240.443,351.287,241.634,349.226z"/>
				</g>
			</g>
			<g>
				<g>
					<g>
						<rect x="251.252" y="338.483" style="fill:#FFFFFF;" width="3.334" height="7.953"/>
					</g>
				</g>
				<g>
					<g>
						<path style="fill:#FFFFFF;" d="M255.049,349.755c0,1.003-0.954,1.816-2.13,1.816c-1.176,0-2.13-0.813-2.13-1.816
							c0-1.003,0.954-1.816,2.13-1.816C254.095,347.939,255.049,348.752,255.049,349.755z"/>
					</g>
				</g>
			</g>
		</g>
	</g>
</g>
</svg>
