<svg class="absolute -right-40 -mr-40 mt-32 h-96 md:h-112 lg:-mr-32 lg:h-128 xl:-mr-8 xl:mt-24 xl:h-auto" width="480" height="600" viewBox="0 0 480 600" fill="none" xmlns="http://www.w3.org/2000/svg"><g clip-path="url(#clip0)"><path opacity="0.2" fill-rule="evenodd" clip-rule="evenodd" d="M419.201 540L359.315 480H389.258C405.796 480 419.201 493.431 419.201 510V540Z" fill="#64DDC9"></path><path opacity="0.1" fill-rule="evenodd" clip-rule="evenodd" d="M119.772 600L179.658 540H149.715C133.177 540 119.772 553.431 119.772 570V600Z" fill="#B0ECE2"></path><path opacity="0.1" fill-rule="evenodd" clip-rule="evenodd" d="M179.658 540L239.544 480H209.601C193.063 480 179.658 493.431 179.658 510V540Z" fill="#64DDC9"></path><path opacity="0.2" fill-rule="evenodd" clip-rule="evenodd" d="M179.658 540L119.772 480H149.715C166.252 480 179.658 493.431 179.658 510V540Z" fill="#64DDC9"></path><path opacity="0.1" fill-rule="evenodd" clip-rule="evenodd" d="M119.772 600L59.8857 540H89.8287C106.366 540 119.772 553.431 119.772 570V600Z" fill="#38CEB5"></path><path fill-rule="evenodd" clip-rule="evenodd" d="M59.8857 540L119.772 480H89.8287C73.2912 480 59.8857 493.431 59.8857 510V540Z" fill="#85E7D7"></path><path fill-rule="evenodd" clip-rule="evenodd" d="M59.8859 540L0 480H29.943C46.4805 480 59.8859 493.431 59.8859 510V540Z" fill="#B0ECE2"></path><path opacity="0.1" fill-rule="evenodd" clip-rule="evenodd" d="M419.202 420L479.088 360H449.145C432.607 360 419.202 373.431 419.202 390V420Z" fill="#18B69B"></path><path fill-rule="evenodd" clip-rule="evenodd" d="M239.544 480L299.43 420H269.487C252.949 420 239.544 433.431 239.544 450V480Z" fill="#38CEB5"></path><path opacity="0.4" fill-rule="evenodd" clip-rule="evenodd" d="M299.43 420L359.316 360H329.373C312.835 360 299.43 373.431 299.43 390V420Z" fill="#18B69B"></path><path fill-rule="evenodd" clip-rule="evenodd" d="M299.43 420L239.544 360H269.487C286.024 360 299.43 373.431 299.43 390V420ZM239.544 480L179.658 420H209.601C226.138 420 239.544 433.431 239.544 450V480Z" fill="#64DDC9"></path><path fill-rule="evenodd" clip-rule="evenodd" d="M119.772 480L179.658 420H149.715C133.177 420 119.772 433.431 119.772 450V480Z" fill="#18B69B"></path><path opacity="0.1" fill-rule="evenodd" clip-rule="evenodd" d="M179.658 420L239.544 360H209.601C193.063 360 179.658 373.431 179.658 390V420Z" fill="#38CEB5"></path><path opacity="0.4" fill-rule="evenodd" clip-rule="evenodd" d="M179.658 420L119.772 360H149.715C166.252 360 179.658 373.431 179.658 390V420Z" fill="#B0ECE2"></path><path fill-rule="evenodd" clip-rule="evenodd" d="M119.772 480L59.8857 420H89.8287C106.366 420 119.772 433.431 119.772 450V480Z" fill="#85E7D7"></path><path opacity="0.1" fill-rule="evenodd" clip-rule="evenodd" d="M0 480L59.8859 420H29.943C13.4055 420 0 433.431 0 450V480Z" fill="#18B69B"></path><path fill-rule="evenodd" clip-rule="evenodd" d="M59.8857 420L119.772 360H89.8287C73.2912 360 59.8857 373.431 59.8857 390V420Z" fill="#64DDC9"></path><path fill-rule="evenodd" clip-rule="evenodd" d="M59.8859 420L0 360H29.943C46.4805 360 59.8859 373.431 59.8859 390V420Z" fill="#38CEB5"></path><path fill-rule="evenodd" clip-rule="evenodd" d="M359.315 360L419.201 300H389.258C372.721 300 359.315 313.431 359.315 330V360Z" fill="#64DDC9"></path><path opacity="0.1" fill-rule="evenodd" clip-rule="evenodd" d="M359.316 360L299.43 300H329.373C345.91 300 359.316 313.431 359.316 330V360Z" fill="#18B69B"></path><path fill-rule="evenodd" clip-rule="evenodd" d="M239.544 360L299.43 300H269.487C252.949 300 239.544 313.431 239.544 330V360Z" fill="#B0ECE2"></path><path fill-rule="evenodd" clip-rule="evenodd" d="M239.544 360L179.658 300H209.601C226.138 300 239.544 313.431 239.544 330V360ZM119.772 360L179.658 300H149.715C133.177 300 119.772 313.431 119.772 330V360Z" fill="#85E7D7"></path><path fill-rule="evenodd" clip-rule="evenodd" d="M119.772 360L59.8857 300H89.8287C106.366 300 119.772 313.431 119.772 330V360Z" fill="#64DDC9"></path><path fill-rule="evenodd" clip-rule="evenodd" d="M0 360L59.8859 300H29.943C13.4055 300 0 313.431 0 330V360Z" fill="#85E7D7"></path><path fill-rule="evenodd" clip-rule="evenodd" d="M59.8857 60L119.772 120H89.8287C73.2912 120 59.8857 106.569 59.8857 90V60Z" fill="#64DDC9"></path><path fill-rule="evenodd" clip-rule="evenodd" d="M359.316 0L299.43 60H329.373C345.91 60 359.316 46.569 359.316 30V0Z" fill="#B0ECE2"></path><path opacity="0.4" fill-rule="evenodd" clip-rule="evenodd" d="M299.43 60L239.544 120H269.487C286.024 120 299.43 106.569 299.43 90V60Z" fill="#64DDC9"></path><path fill-rule="evenodd" clip-rule="evenodd" d="M299.43 60L359.316 120H329.373C312.835 120 299.43 106.569 299.43 90V60Z" fill="#64DDC9"></path><path opacity="0.1" fill-rule="evenodd" clip-rule="evenodd" d="M359.315 0L419.201 60H389.258C372.721 60 359.315 46.569 359.315 30V0Z" fill="#38CEB5"></path><path fill-rule="evenodd" clip-rule="evenodd" d="M419.201 60L359.315 120H389.258C405.796 120 419.201 106.569 419.201 90V60Z" fill="#85E7D7"></path><path fill-rule="evenodd" clip-rule="evenodd" d="M419.202 60L479.088 120H449.145C432.607 120 419.202 106.569 419.202 90V60Z" fill="#B0ECE2"></path><path opacity="0.1" fill-rule="evenodd" clip-rule="evenodd" d="M59.8859 180L0 240H29.943C46.4805 240 59.8859 226.569 59.8859 210V180Z" fill="#18B69B"></path><path fill-rule="evenodd" clip-rule="evenodd" d="M239.544 120L179.658 180H209.601C226.138 180 239.544 166.569 239.544 150V120Z" fill="#38CEB5"></path><path opacity="0.4" fill-rule="evenodd" clip-rule="evenodd" d="M179.658 180L119.772 240H149.715C166.252 240 179.658 226.569 179.658 210V180Z" fill="#18B69B"></path><path fill-rule="evenodd" clip-rule="evenodd" d="M179.658 180L239.544 240H209.601C193.063 240 179.658 226.569 179.658 210V180ZM239.544 120L299.43 180H269.487C252.949 180 239.544 166.569 239.544 150V120Z" fill="#64DDC9"></path><path fill-rule="evenodd" clip-rule="evenodd" d="M359.316 120L299.43 180H329.373C345.91 180 359.316 166.569 359.316 150V120Z" fill="#18B69B"></path><path opacity="0.1" fill-rule="evenodd" clip-rule="evenodd" d="M299.43 180L239.544 240H269.487C286.024 240 299.43 226.569 299.43 210V180Z" fill="#38CEB5"></path><path opacity="0.4" fill-rule="evenodd" clip-rule="evenodd" d="M299.43 180L359.316 240H329.373C312.835 240 299.43 226.569 299.43 210V180Z" fill="#B0ECE2"></path><path fill-rule="evenodd" clip-rule="evenodd" d="M359.315 120L419.201 180H389.258C372.721 180 359.315 166.569 359.315 150V120Z" fill="#85E7D7"></path><path opacity="0.1" fill-rule="evenodd" clip-rule="evenodd" d="M479.088 120L419.202 180H449.145C465.682 180 479.088 166.569 479.088 150V120Z" fill="#18B69B"></path><path fill-rule="evenodd" clip-rule="evenodd" d="M419.201 180L359.315 240H389.258C405.796 240 419.201 226.569 419.201 210V180Z" fill="#64DDC9"></path><path fill-rule="evenodd" clip-rule="evenodd" d="M419.202 180L479.088 240H449.145C432.607 240 419.202 226.569 419.202 210V180Z" fill="#38CEB5"></path><path fill-rule="evenodd" clip-rule="evenodd" d="M119.772 240L59.8857 300H89.8287C106.366 300 119.772 286.569 119.772 270V240Z" fill="#64DDC9"></path><path opacity="0.1" fill-rule="evenodd" clip-rule="evenodd" d="M119.772 240L179.658 300H149.715C133.177 300 119.772 286.569 119.772 270V240Z" fill="#18B69B"></path><path fill-rule="evenodd" clip-rule="evenodd" d="M239.544 240L179.658 300H209.601C226.138 300 239.544 286.569 239.544 270V240Z" fill="#B0ECE2"></path><path fill-rule="evenodd" clip-rule="evenodd" d="M239.544 240L299.43 300H269.487C252.949 300 239.544 286.569 239.544 270V240ZM359.316 240L299.43 300H329.373C345.91 300 359.316 286.569 359.316 270V240Z" fill="#85E7D7"></path><path fill-rule="evenodd" clip-rule="evenodd" d="M359.315 240L419.201 300H389.258C372.721 300 359.315 286.569 359.315 270V240Z" fill="#64DDC9"></path><path fill-rule="evenodd" clip-rule="evenodd" d="M479.088 240L419.202 300H449.145C465.682 300 479.088 286.569 479.088 270V240Z" fill="#85E7D7"></path></g><defs><clipPath id="clip0"><rect width="479.087" height="600" fill="white" transform="matrix(1 0 0 -1 0 600)"></rect></clipPath></defs></svg>